<svg width="38" height="38" viewBox="0 0 38 38" fill="none" xmlns="http://www.w3.org/2000/svg">
<path d="M6.82857 6.48266L6.82823 6.483C3.6376 9.67373 1.84471 14.001 1.84375 18.5132L6.82857 6.48266ZM6.82857 6.48266C10.0153 3.29376 14.3458 1.5 18.857 1.5C23.3682 1.5 27.6986 3.29376 30.8854 6.48266L30.8859 6.4831C34.0758 9.67254 35.8702 14.0032 35.8702 18.5132C35.8702 23.0233 34.0758 27.354 30.8859 30.5434L30.8854 30.5438C27.6986 33.7327 23.3682 35.5265 18.857 35.5265C14.3458 35.5265 10.0153 33.7327 6.82857 30.5438L6.82812 30.5434M6.82857 6.48266L6.82812 30.5434M6.82812 30.5434C3.63823 27.354 1.84383 23.0235 1.84375 18.5135L6.82812 30.5434Z" stroke="url(#paint0_linear_446_1000)" stroke-width="3"/>
<path d="M9.01826 17.7639C13.9722 15.5827 17.2749 14.1445 18.9262 13.4497C23.6466 11.4657 24.6262 11.1212 25.266 11.1095C25.4067 11.1072 25.72 11.1424 25.9244 11.3094C26.0944 11.4503 26.1421 11.6408 26.166 11.7746C26.1873 11.9083 26.2165 12.2128 26.1926 12.4506C25.9377 15.1664 24.8306 21.7569 24.2678 24.7988C24.0315 26.0858 23.5616 26.5174 23.1076 26.5595C22.12 26.6513 21.3714 25.9004 20.4156 25.2673C18.9209 24.2763 18.0767 23.6596 16.6245 22.6927C14.9466 21.5752 16.0351 20.9609 16.9908 19.9572C17.2404 19.6945 21.5891 15.6973 21.6714 15.3347C21.682 15.2894 21.6926 15.1203 21.5917 15.0312C21.4935 14.9418 21.3475 14.9724 21.2413 14.9966C21.0899 15.0309 18.7032 16.6271 14.0731 19.785C13.3961 20.2557 12.7829 20.4851 12.2307 20.473C11.6253 20.4599 10.4572 20.1263 9.58906 19.8413C8.52711 19.4916 7.68021 19.3067 7.75455 18.7129C7.79171 18.4037 8.21384 18.0873 9.01826 17.7639Z" fill="#44000A"/>
<defs>
<linearGradient id="paint0_linear_446_1000" x1="1851.67" y1="0" x2="1851.67" y2="3702.65" gradientUnits="userSpaceOnUse">
<stop stop-color="#44000A"/>
<stop offset="1" stop-color="#229ED9"/>
</linearGradient>
</defs>
</svg>
