<svg width="45" height="44" viewBox="0 0 45 44" fill="none" xmlns="http://www.w3.org/2000/svg">
<path d="M35.2993 9.0011C33.6186 7.30331 31.6165 5.95717 29.41 5.04121C27.2036 4.12525 24.8368 3.6578 22.4477 3.66612C12.4378 3.66612 4.27948 11.8244 4.27948 21.8344C4.27948 25.0427 5.12281 28.1594 6.69947 30.9093L4.13281 40.3326L13.7578 37.8026C16.4161 39.251 19.4044 40.021 22.4477 40.021C32.4577 40.021 40.616 31.8627 40.616 21.8527C40.616 16.9944 38.7277 12.4294 35.2993 9.0011ZM22.4477 36.941C19.7344 36.941 17.0761 36.2076 14.7478 34.8327L14.1978 34.5027L8.47779 36.006L9.99945 30.4327L9.63279 29.8643C8.12533 27.4571 7.32489 24.6746 7.3228 21.8344C7.3228 13.5111 14.1061 6.72778 22.4294 6.72778C26.4627 6.72778 30.2577 8.30444 33.0994 11.1644C34.5064 12.565 35.6215 14.231 36.3799 16.0657C37.1383 17.9004 37.5251 19.8674 37.5177 21.8527C37.5543 30.176 30.771 36.941 22.4477 36.941ZM30.7344 25.6477C30.276 25.4277 28.0394 24.3277 27.636 24.1627C27.2144 24.016 26.9211 23.9427 26.6094 24.3827C26.2977 24.841 25.4361 25.8677 25.1794 26.161C24.9227 26.4727 24.6477 26.5094 24.1894 26.271C23.7311 26.051 22.2644 25.556 20.5411 24.016C19.1844 22.806 18.2861 21.3211 18.0111 20.8627C17.7544 20.4044 17.9744 20.1661 18.2128 19.9277C18.4144 19.7261 18.6711 19.3961 18.8911 19.1394C19.1111 18.8827 19.2027 18.6811 19.3494 18.3877C19.4961 18.0761 19.4227 17.8194 19.3127 17.5994C19.2027 17.3794 18.2861 15.1427 17.9194 14.2261C17.5528 13.3461 17.1678 13.4561 16.8928 13.4378H16.0128C15.7011 13.4378 15.2244 13.5477 14.8028 14.0061C14.3994 14.4644 13.2261 15.5644 13.2261 17.8011C13.2261 20.0377 14.8578 22.201 15.0778 22.4944C15.2978 22.806 18.2861 27.3894 22.8327 29.351C23.9144 29.8277 24.7577 30.1027 25.4177 30.3043C26.4994 30.6527 27.4894 30.5977 28.2777 30.4877C29.1577 30.3593 30.9727 29.3877 31.3394 28.3244C31.7244 27.261 31.7244 26.3627 31.596 26.161C31.4677 25.9594 31.1927 25.8677 30.7344 25.6477Z" fill="#44000A"/>
</svg>
