<svg width="45" height="44" viewBox="0 0 45 44" fill="none" xmlns="http://www.w3.org/2000/svg">
<path d="M35.2993 9.00306C33.6186 7.30526 31.6165 5.95913 29.41 5.04317C27.2036 4.12721 24.8368 3.65976 22.4477 3.66808C12.4378 3.66808 4.27948 11.8264 4.27948 21.8363C4.27948 25.0447 5.12281 28.1613 6.69947 30.9113L4.13281 40.3346L13.7578 37.8046C16.4161 39.2529 19.4044 40.0229 22.4477 40.0229C32.4577 40.0229 40.616 31.8646 40.616 21.8547C40.616 16.9964 38.7277 12.4314 35.2993 9.00306ZM22.4477 36.9429C19.7344 36.9429 17.0761 36.2096 14.7478 34.8346L14.1978 34.5046L8.47779 36.0079L9.99945 30.4346L9.63279 29.8663C8.12533 27.4591 7.32489 24.6766 7.3228 21.8363C7.3228 13.513 14.1061 6.72973 22.4294 6.72973C26.4627 6.72973 30.2577 8.30639 33.0994 11.1664C34.5064 12.567 35.6215 14.2329 36.3799 16.0676C37.1383 17.9024 37.5251 19.8694 37.5177 21.8547C37.5543 30.178 30.771 36.9429 22.4477 36.9429ZM30.7344 25.6497C30.276 25.4297 28.0394 24.3297 27.636 24.1647C27.2144 24.018 26.9211 23.9447 26.6094 24.3847C26.2977 24.843 25.4361 25.8697 25.1794 26.163C24.9227 26.4746 24.6477 26.5113 24.1894 26.273C23.7311 26.053 22.2644 25.558 20.5411 24.018C19.1844 22.808 18.2861 21.323 18.0111 20.8647C17.7544 20.4063 17.9744 20.168 18.2128 19.9297C18.4144 19.728 18.6711 19.398 18.8911 19.1413C19.1111 18.8847 19.2027 18.683 19.3494 18.3897C19.4961 18.078 19.4227 17.8214 19.3127 17.6014C19.2027 17.3814 18.2861 15.1447 17.9194 14.228C17.5528 13.348 17.1678 13.458 16.8928 13.4397H16.0128C15.7011 13.4397 15.2244 13.5497 14.8028 14.008C14.3994 14.4664 13.2261 15.5664 13.2261 17.803C13.2261 20.0397 14.8578 22.203 15.0778 22.4963C15.2978 22.808 18.2861 27.3913 22.8327 29.353C23.9144 29.8296 24.7577 30.1046 25.4177 30.3063C26.4994 30.6546 27.4894 30.5996 28.2777 30.4896C29.1577 30.3613 30.9727 29.3896 31.3394 28.3263C31.7244 27.263 31.7244 26.3646 31.596 26.163C31.4677 25.9613 31.1927 25.8696 30.7344 25.6497Z" fill="#F9F7F2"/>
</svg>
